<!--ORCA logo draft, used via Premium Flaticon license--> <svg id="Capa_1" enable-background="new 0 0 512 512" height="512" viewBox="0 0 512 512" width="512" xmlns="http://www.w3.org/2000/svg"><g><g><g fill="#a7bdcd"><path id="XMLID_84_" d="m63.695 395.22c-30.334 11.753-51.794 36.748-53.695 66.095 5.599 1.272 11.484 1.964 17.565 1.964 21.13 0 39.953-8.205 52.177-20.995 12.223 12.789 31.046 20.995 52.177 20.995 6.081 0 11.967-.692 17.565-1.964-1.901-29.347-23.361-54.342-53.695-66.095z"/><path d="m318.136 116.594c-3.246-38.02-35.116-67.872-73.976-67.872-13.945 0-26.987 3.851-38.136 10.536 19.667 15.426 33.375 38.101 37.109 64z"/><path d="m487.664 201.69c-6.449-6.398-13.195-12.434-20.204-18.096-76.062-61.44-183.152-78.783-278.357-35.81-95.362 43.044-136.343 141.91-136.343 247.438h54.66c14.433-19.623 22.647-62.327 70.037-86.646 9.498-4.874 19.344-8.336 29.337-10.565.605 3.479.946 7.048.946 10.7 0 17.342-7.088 33.024-18.519 44.323 9.082 4.231 19.201 6.607 29.881 6.607 33.734 0 61.933-23.582 69.084-55.153l2.823 1.099-.005.014c50.004 15.565 105.608 13.834 157.094-9.407 10.387-4.688 22.825-12.944 34.486-21.585 23.73-17.588 26.049-52.114 5.08-72.919z"/></g><path d="m206.794 298.01c-13.807-34.442-61.47-32.54-83.995-6.918-14.178 16.127-14.05 47.74 6.868 63.257 9.803-16.38 23.758-33.44 47.79-45.773 9.496-4.873 19.34-8.334 29.331-10.564.002-.001.004-.002.006-.002z" fill="#fff"/><path d="m478.064 277.906v-.002c-43.833-49.444-177.365-19.92-189.879 26.583l2.823 1.099-.005.014c50.004 15.565 105.608 13.834 157.094-9.407 9.054-4.087 19.669-10.886 29.967-18.287z" fill="#fff"/><ellipse cx="354.564" cy="192.133" fill="#fff" rx="22.56" ry="38.544" transform="matrix(.146 -.989 .989 .146 112.783 514.891)"/></g><path d="m494.707 194.592c-6.63-6.579-13.683-12.896-20.964-18.777-39.364-31.797-86.709-52.263-136.917-59.187-2.912-.402-5.828-.75-8.744-1.058-1.827-20.889-11.336-40.245-26.795-54.518-15.598-14.4-35.886-22.331-57.127-22.331-15.266 0-30.231 4.136-43.278 11.96-2.823 1.693-4.633 4.667-4.838 7.952s1.219 6.461 3.809 8.492c17.553 13.766 29.168 33.223 32.951 55-16.313 4.031-32.318 9.549-47.815 16.544-47.495 21.438-84.073 56.713-108.719 104.844-21.818 42.61-33.395 94.776-33.505 150.904-25.079 15.253-41.005 39.414-42.743 66.25-.317 4.902 2.973 9.31 7.764 10.397 6.459 1.469 13.114 2.213 19.781 2.213 19.567 0 38.08-6.285 52.177-17.493 14.096 11.208 32.608 17.493 52.177 17.493 6.667 0 13.322-.744 19.781-2.213 4.79-1.089 8.08-5.495 7.763-10.397-1.685-26.019-16.708-49.52-40.476-64.83 2.946-4.862 5.676-10.361 8.516-16.101 10.134-20.477 22.745-45.96 54.52-62.266 5.02-2.576 10.261-4.774 15.672-6.577-.541 13.263-5.998 25.63-15.504 35.025-2.328 2.301-3.383 5.597-2.823 8.821.56 3.226 2.662 5.973 5.629 7.355 10.743 5.005 22.218 7.543 34.104 7.543 18.447 0 36.488-6.38 50.802-17.964 11.244-9.101 19.854-21.108 24.901-34.53 52.386 14.592 108.009 10.46 157.406-11.838 8.672-3.914 19.332-10.406 31.688-19.282.014-.01-.014.01 0 0 1.515-1.088 3.072-2.222 4.638-3.383 13.601-10.079 22.098-25.541 23.312-42.42 1.221-16.976-5.027-33.608-17.143-45.628zm-270.807-132.601c6.498-2.155 13.337-3.27 20.26-3.27 16.198 0 31.668 6.047 43.561 17.026 11.014 10.169 18.064 23.713 20.083 38.427-18.576-.586-37.128.717-55.397 3.853-3.817-21.207-13.717-40.581-28.507-56.036zm-85.719 391.005c-2.078.188-4.169.282-6.262.282-17.691 0-34.073-6.525-44.947-17.904-1.887-1.974-4.498-3.091-7.229-3.091-2.73 0-5.343 1.117-7.229 3.091-10.874 11.378-27.257 17.904-44.947 17.904-2.093 0-4.184-.095-6.263-.282 4.757-20.495 21.01-38.219 44.307-47.774h28.265c23.297 9.555 39.549 27.279 44.305 47.774zm34.71-153.317c-20.815 10.682-34.65 24.625-44.697 38.657-2.745-4.323-4.493-9.42-5.065-15.002-.988-9.654 1.763-19.479 7.18-25.64 10.263-11.675 27.479-17.743 42.854-15.109 5.692.978 12.685 3.45 18.206 9.35-6.372 2.123-12.555 4.704-18.478 7.744zm271.091-12.6c-27.43 12.381-56.958 18.63-86.66 18.628-18.441-.001-36.948-2.409-55.051-7.255 9.549-12.699 31.841-24.555 59.709-31.116 45.238-10.649 80.603-3.532 99.836 9.614-6.807 4.451-12.778 7.847-17.834 10.129zm47.919-48.292c-.726 10.09-5.436 19.398-13.025 25.969-30.58-26.179-83.422-25.849-121.479-16.888-32.94 7.755-70.837 26.186-78.768 53.718-2.998 13.238-10.693 25.951-21.308 34.542-10.921 8.839-24.137 13.511-38.22 13.511-4.451 0-8.824-.473-13.09-1.41 7.635-11.646 11.728-25.259 11.728-39.52 0-4.069-.368-8.247-1.094-12.415-.121-.692-.313-1.363-.571-2.005-6.739-16.811-21.145-28.261-39.528-31.417-22.3-3.829-46.35 4.658-61.259 21.616-9.107 10.36-13.613 25.643-12.055 40.881 1.234 12.054 6.048 22.802 13.752 31.04-2.749 5.053-12.523 24.794-14.937 28.812h-39.16c1.271-49.442 11.987-95.103 31.184-132.593 22.528-43.995 55.886-76.204 99.146-95.73 44.279-19.985 92.993-27.062 140.877-20.458 46.604 6.427 90.548 25.422 127.083 54.933 6.753 5.455 13.295 11.314 19.443 17.416h.001c7.971 7.909 12.083 18.843 11.28 29.998z" fill="#8aa8bd"/></g></svg>
