<?xml version="1.0" standalone="no"?>
<!DOCTYPE svg PUBLIC "-//W3C//DTD SVG 20010904//EN"
 "http://www.w3.org/TR/2001/REC-SVG-20010904/DTD/svg10.dtd">
<svg version="1.0" xmlns="http://www.w3.org/2000/svg"
 width="700.000000pt" height="700.000000pt" viewBox="0 0 700.000000 700.000000"
 preserveAspectRatio="xMidYMid meet">
<metadata>
Created by potrace 1.14, written by Peter Selinger 2001-2017
</metadata>
<g transform="translate(0.000000,700.000000) scale(0.100000,-0.100000)"
fill="#000000" stroke="none">
<path d="M3150 6454 c-73 -12 -175 -40 -234 -63 -52 -21 -171 -82 -189 -98
-25 -23 -47 -72 -47 -105 0 -46 22 -78 115 -162 171 -156 303 -368 360 -579
28 -103 27 -127 -2 -127 -10 0 -79 -18 -153 -41 -399 -120 -771 -304 -1065
-527 -223 -169 -461 -415 -627 -647 -111 -156 -162 -241 -285 -475 -129 -245
-269 -660 -337 -1003 -4 -15 -8 -37 -11 -50 -11 -56 -34 -198 -40 -251 -4 -33
-9 -67 -10 -75 -2 -9 -6 -45 -9 -81 -4 -36 -9 -81 -11 -101 -6 -52 -17 -259
-19 -368 -2 -79 -5 -96 -20 -105 -66 -40 -184 -137 -252 -209 -158 -165 -248
-335 -294 -551 -31 -147 -17 -227 48 -260 79 -41 350 -57 507 -30 165 29 364
108 466 187 l47 35 58 -40 c197 -136 462 -208 712 -195 175 10 244 26 283 69
37 39 44 81 29 180 -34 233 -149 455 -329 632 -66 65 -157 141 -199 165 -21
12 236 501 336 639 98 136 222 257 364 355 64 44 227 127 317 161 l44 17 -7
-66 c-13 -126 -90 -291 -180 -387 -69 -73 -83 -141 -41 -204 29 -44 219 -116
370 -139 48 -7 258 -8 283 -1 9 3 34 7 54 10 105 16 205 49 318 106 206 104
381 282 488 498 25 50 49 92 52 92 4 0 52 -11 106 -24 54 -14 113 -27 129 -30
17 -3 46 -8 65 -11 19 -4 49 -8 65 -11 17 -2 39 -5 50 -8 11 -2 52 -7 90 -10
39 -4 90 -9 115 -12 57 -6 400 -5 460 1 25 3 70 7 100 10 237 25 533 94 767
180 154 57 353 159 501 257 76 50 142 97 148 104 6 8 16 14 22 14 24 0 188
177 228 246 142 242 150 521 23 775 -67 134 -263 330 -534 534 -121 91 -294
207 -350 235 -11 6 -40 22 -65 36 -213 123 -558 271 -765 329 -27 8 -81 23
-120 35 -38 11 -80 22 -93 24 -12 3 -30 7 -40 10 -9 3 -28 7 -42 10 -14 3 -61
11 -105 20 -94 18 -131 23 -205 32 -30 4 -62 8 -70 10 -8 1 -20 3 -26 3 -6 1
-11 7 -11 14 -1 14 -10 77 -18 127 -11 63 -65 212 -103 284 -139 267 -377 471
-657 565 -92 30 -117 37 -215 51 -82 12 -255 9 -340 -6z"/>
</g>
</svg>
